<svg xmlns="http://www.w3.org/2000/svg" xmlns:xlink="http://www.w3.org/1999/xlink" width="45" height="45" viewBox="0 0 45 45"><defs><style>.a{fill:#0060c1;stroke:rgba(0,0,0,0);stroke-miterlimit:10;opacity:0.7;}.b{fill:#4b8fd3;}.c{filter:url(#a);}</style><filter id="a" x="0" y="0" width="45" height="45" filterUnits="userSpaceOnUse"><feOffset dx="3" dy="3" input="SourceAlpha"/><feGaussianBlur stdDeviation="4" result="b"/><feFlood flood-opacity="0.282"/><feComposite operator="in" in2="b"/><feComposite in="SourceGraphic"/></filter></defs><g transform="translate(-97.5 -75.5)"><g class="c" transform="matrix(1, 0, 0, 1, 97.5, 75.5)"><path class="a" d="M12,2A10,10,0,1,0,22,12,9.991,9.991,0,0,0,12,2Zm0,18a8,8,0,1,1,8-8A8.011,8.011,0,0,1,12,20Z" transform="translate(7.5 7.5)"/></g><path class="b" d="M0,0V7.414L5.467,3.427Z" transform="matrix(-0.719, 0.695, -0.695, -0.719, 119.338, 97.692)"/><path class="b" d="M0,7.414V0L5.467,3.987Z" transform="matrix(0.719, -0.695, 0.695, 0.719, 114.599, 91.935)"/></g></svg>